<?xml version="1.0" encoding="UTF-8" standalone="no"?>
<!-- Created with Inkscape (http://www.inkscape.org/) -->

<svg
   xmlns:dc="http://purl.org/dc/elements/1.1/"
   xmlns:cc="http://creativecommons.org/ns#"
   xmlns:rdf="http://www.w3.org/1999/02/22-rdf-syntax-ns#"
   xmlns:svg="http://www.w3.org/2000/svg"
   xmlns="http://www.w3.org/2000/svg"
   xmlns:sodipodi="http://sodipodi.sourceforge.net/DTD/sodipodi-0.dtd"
   xmlns:inkscape="http://www.inkscape.org/namespaces/inkscape"
   width="200"
   height="200"
   viewBox="0 0 200 199.99999"
   id="svg2"
   version="1.1"
   inkscape:version="0.91 r13725"
   sodipodi:docname="flowers.svg"
   inkscape:export-filename="/home/kirsten/Desktop/ggj2020/Bee_Honey.png"
   inkscape:export-xdpi="90"
   inkscape:export-ydpi="90">
  <defs
     id="defs4">
    <inkscape:perspective
       sodipodi:type="inkscape:persp3d"
       inkscape:vp_x="0 : 236.62062 : 1"
       inkscape:vp_y="0 : 999.99998 : 0"
       inkscape:vp_z="496.72229 : 236.62062 : 1"
       inkscape:persp3d-origin="248.36115 : 157.74709 : 1"
       id="perspective4174" />
  </defs>
  <sodipodi:namedview
     id="base"
     pagecolor="#ffffff"
     bordercolor="#666666"
     borderopacity="1.0"
     inkscape:pageopacity="0.0"
     inkscape:pageshadow="2"
     inkscape:zoom="1.9097222"
     inkscape:cx="150.16873"
     inkscape:cy="216.94894"
     inkscape:document-units="px"
     inkscape:current-layer="layer1"
     showgrid="true"
     inkscape:window-width="1301"
     inkscape:window-height="744"
     inkscape:window-x="65"
     inkscape:window-y="24"
     inkscape:window-maximized="1"
     fit-margin-top="0"
     fit-margin-left="0"
     fit-margin-right="0"
     fit-margin-bottom="0"
     inkscape:snap-global="true"
     inkscape:snap-others="true"
     inkscape:snap-bbox="true"
     inkscape:bbox-paths="true"
     inkscape:bbox-nodes="false"
     showguides="false"
     units="px"
     inkscape:snap-nodes="true">
    <inkscape:grid
       type="xygrid"
       id="grid4208" />
  </sodipodi:namedview>
  <metadata
     id="metadata7">
    <rdf:RDF>
      <cc:Work
         rdf:about="">
        <dc:format>image/svg+xml</dc:format>
        <dc:type
           rdf:resource="http://purl.org/dc/dcmitype/StillImage" />
        <dc:title></dc:title>
      </cc:Work>
    </rdf:RDF>
  </metadata>
  <g
     inkscape:label="Layer 1"
     inkscape:groupmode="layer"
     id="layer1"
     transform="translate(-121.44053,-351.31775)">
    <g
       id="g4266"
       inkscape:export-xdpi="90"
       inkscape:export-ydpi="90"
       transform="matrix(0.23498079,0,0,0.23498079,-219.89643,260.35838)">
      <ellipse
         transform="matrix(0.48585871,0.87403736,-0.87403736,0.48585871,0,0)"
         ry="110"
         rx="37.142857"
         cy="-303.58008"
         cx="477.09866"
         id="path4138-6"
         style="fill:#ff0000;stroke:none" />
      <ellipse
         transform="matrix(0.92154882,0.38826249,-0.38826249,0.92154882,0,0)"
         ry="110"
         rx="37.142857"
         cy="19.186304"
         cx="479.33981"
         id="path4138-3"
         style="fill:#ff2a2a;stroke:none" />
      <ellipse
         inkscape:transform-center-y="-14.459528"
         inkscape:transform-center-x="-98.742628"
         transform="matrix(-0.85568394,0.51749878,-0.51749878,-0.85568394,0,0)"
         ry="110"
         rx="37.142857"
         cy="-350.3801"
         cx="-147.24222"
         id="path4138-1-7-0-9"
         style="fill:#ff0000;stroke:none" />
      <ellipse
         transform="matrix(-0.40116265,0.91600684,-0.91600684,-0.40116265,0,0)"
         ry="110"
         rx="37.142857"
         cy="-317.31659"
         cx="133.4155"
         id="path4138-1-7-0"
         style="fill:#ff2a2a;stroke:none" />
      <ellipse
         transform="matrix(0.68198532,0.73136586,-0.73136586,0.68198532,0,0)"
         ry="110"
         rx="37.142857"
         cy="83.134682"
         cx="474.5835"
         id="path4138-1"
         style="fill:#ff0000;stroke:none" />
      <ellipse
         transform="matrix(0.91555238,0.40219876,-0.40219876,0.91555238,0,0)"
         ry="110"
         rx="37.142857"
         cy="278.24524"
         cx="484.23065"
         id="path4138-7"
         style="fill:#ff0000;stroke:none" />
      <ellipse
         transform="matrix(0.01566286,0.99987733,-0.99987733,0.01566286,0,0)"
         ry="110"
         rx="37.142857"
         cy="-226.37344"
         cx="324.51907"
         id="path4138-1-7"
         style="fill:#ff0000;stroke:none" />
      <ellipse
         ry="98.571426"
         rx="32.857143"
         cy="452.36218"
         cx="401.42856"
         id="path4138-5"
         style="fill:#ff0000;stroke:none" />
      <ellipse
         transform="matrix(-0.80862605,0.58832297,-0.72927645,-0.68421916,0,0)"
         ry="104.91526"
         rx="44.380924"
         cy="-618.68933"
         cx="-35.621437"
         id="path4138-35"
         style="fill:#ff2a2a;stroke:none" />
      <ellipse
         transform="matrix(-0.09148961,0.99580603,-0.99580603,-0.09148961,0,0)"
         ry="110"
         rx="37.142857"
         cy="-537.1076"
         cx="287.28445"
         id="path4138-62"
         style="fill:#ff0000;stroke:none" />
      <ellipse
         ry="110"
         rx="37.142857"
         cy="188.07648"
         cx="377.14285"
         id="path4138"
         style="fill:#ff0000;stroke:none" />
      <circle
         r="54.285713"
         cy="332.36221"
         cx="374.28571"
         id="path3336"
         style="fill:#0000ff;fill-rule:evenodd;stroke:none;stroke-width:1px;stroke-linecap:butt;stroke-linejoin:miter;stroke-opacity:1" />
    </g>
    <g
       id="g4536"
       inkscape:export-xdpi="90"
       inkscape:export-ydpi="90"
       transform="matrix(0.21856308,0,0,0.21856308,76.515856,116.4438)">
      <ellipse
         transform="matrix(-0.43508925,0.90038733,-0.90038733,-0.43508925,0,0)"
         ry="110"
         rx="37.142857"
         cy="-28.867304"
         cx="1040.804"
         id="path4138-6-6-7"
         style="fill:#0000ff;stroke:none" />
      <ellipse
         transform="matrix(0.21292549,0.97706844,-0.97706844,0.21292549,0,0)"
         ry="110"
         rx="37.142857"
         cy="583.12122"
         cx="753.58105"
         id="path4138-3-0-5"
         style="fill:#2c2ca0;stroke:none" />
      <ellipse
         inkscape:transform-center-y="-14.459528"
         inkscape:transform-center-x="-98.742628"
         transform="matrix(-0.91569698,-0.40186943,0.40186943,-0.91569698,0,0)"
         ry="110"
         rx="37.142857"
         cy="-903.66162"
         cx="147.9025"
         id="path4138-1-7-0-9-6-9"
         style="fill:#2c2ca0;stroke:none" />
      <ellipse
         transform="matrix(-0.97996158,0.19918659,-0.19918659,-0.97996158,0,0)"
         ry="110"
         rx="37.142857"
         cy="-599.44836"
         cx="693.44458"
         id="path4138-1-7-0-2-2"
         style="fill:#5f8dd3;stroke:none" />
      <ellipse
         transform="matrix(-0.2055337,0.97865004,-0.97865004,-0.2055337,0,0)"
         ry="110"
         rx="37.142857"
         cy="485.47458"
         cx="955.57562"
         id="path4138-1-6-2"
         style="fill:#2c2ca0;stroke:none" />
      <ellipse
         transform="matrix(0.19807774,0.98018631,-0.98018631,0.19807774,0,0)"
         ry="110"
         rx="37.142857"
         cy="837.95471"
         cx="766.99585"
         id="path4138-7-1-8"
         style="fill:#0000aa;stroke:none" />
      <ellipse
         transform="matrix(-0.80862975,0.58831788,-0.58831788,-0.80862975,0,0)"
         ry="110"
         rx="37.142857"
         cy="-250.33357"
         cx="951.1424"
         id="path4138-1-7-8-9"
         style="fill:#212178;stroke:none" />
      <ellipse
         transform="matrix(0.57558026,0.81774529,-0.81774529,0.57558026,0,0)"
         ry="98.571426"
         rx="32.857143"
         cy="1078.5333"
         cx="435.20047"
         id="path4138-5-7-7"
         style="fill:#2a2aff;stroke:none" />
      <ellipse
         transform="matrix(-0.94652753,-0.32262306,0.13975987,-0.99018543,0,0)"
         ry="104.91526"
         rx="44.380924"
         cy="-1154.3632"
         cx="405.72272"
         id="path4138-35-9-3"
         style="fill:#2c2ca0;stroke:none" />
      <ellipse
         transform="matrix(-0.8669753,0.4983511,-0.4983511,-0.8669753,0,0)"
         ry="110"
         rx="37.142857"
         cy="-628.026"
         cx="907.73969"
         id="path4138-62-2-6"
         style="fill:#3737c8;stroke:none" />
      <ellipse
         transform="matrix(0.57558026,0.81774529,-0.81774529,0.57558026,0,0)"
         ry="110"
         rx="37.142857"
         cy="814.24762"
         cx="410.91476"
         id="path4138-0-1"
         style="fill:#00aad4;stroke:none" />
      <circle
         inkscape:export-ydpi="90"
         inkscape:export-xdpi="90"
         transform="matrix(0.57558026,0.81774529,-0.81774529,0.57558026,0,0)"
         r="54.285713"
         cy="952.81909"
         cx="413.77194"
         id="path3336-2-2"
         style="fill:#ffff00;fill-rule:evenodd;stroke:none;stroke-width:1px;stroke-linecap:butt;stroke-linejoin:miter;stroke-opacity:1" />
    </g>
    <g
       id="g4802"
       transform="translate(201.07636,-21.469091)">
      <g
         inkscape:export-ydpi="90"
         inkscape:export-xdpi="90"
         transform="translate(4.8951897e-4,3.9113684e-4)"
         id="g4773">
        <path
           style="fill:#ffff00;stroke:none;stroke-width:45;stroke-linecap:round;stroke-linejoin:round;stroke-miterlimit:4;stroke-dasharray:none;stroke-opacity:1"
           d="m 204.98111,443.98986 c -0.52782,-0.89871 -4.21867,-7.1246 -8.2018,-13.83533 -3.9832,-6.71072 -7.25255,-12.29903 -7.26524,-12.41845 -0.0125,-0.11942 3.94652,-6.75028 8.79825,-14.73524 l 8.82132,-14.5181 16.08687,-10e-4 16.08687,-10e-4 8.38921,14.69068 8.38924,14.69068 -8.2819,13.8811 -8.2819,13.88109 -16.79056,0 -16.79059,0 -0.95977,-1.63401 z"
           id="path4656"
           inkscape:connector-curvature="0" />
        <path
           style="fill:#ffff00;stroke:none;stroke-width:45;stroke-linecap:round;stroke-linejoin:round;stroke-miterlimit:4;stroke-dasharray:none"
           d="m 213.56791,528.83813 c -4.73689,-9.34149 -8.70521,-17.22268 -8.81859,-17.51374 -0.2411,-0.61908 28.79084,-0.66405 32.10193,-0.0497 l 2.21561,0.41105 -8.08977,17.04911 c -4.4494,9.37701 -8.24886,17.05783 -8.44329,17.06849 -0.1944,0.0107 -4.22909,-7.62368 -8.96589,-16.96517 z"
           id="path4631"
           inkscape:connector-curvature="0" />
        <path
           style="fill:#ffff00;stroke:none;stroke-width:45;stroke-linecap:round;stroke-linejoin:round;stroke-miterlimit:4;stroke-dasharray:none"
           d="m 216.49531,475.98147 c -14.67949,-0.0814 -26.68055,-0.3312 -26.66908,-0.55509 0.0115,-0.22388 3.65974,-6.46784 8.10721,-13.87546 l 8.08629,-13.46839 16.94032,-0.13642 16.94031,-0.13642 3.69209,7.00805 c 2.03063,3.85443 5.43536,10.28582 7.56607,14.29198 l 3.87404,7.28393 -5.92363,-0.13209 c -3.25802,-0.0726 -17.93413,-0.19868 -32.61362,-0.28009 z"
           id="path4627"
           inkscape:connector-curvature="0" />
        <path
           style="fill:#ffff00;stroke:none;stroke-width:45;stroke-linecap:round;stroke-linejoin:round;stroke-miterlimit:4;stroke-dasharray:none"
           d="m 206.71647,508.8766 -2.33678,-0.21355 -6.92706,-14.59865 c -3.80986,-8.02926 -6.92703,-14.7054 -6.92703,-14.83587 0,-0.13047 14.04242,-0.23722 31.2054,-0.23722 29.49058,0 31.18674,0.053 30.86621,0.96381 -0.1865,0.5301 -3.17278,7.34278 -6.63609,15.13929 l -6.29696,14.17547 -15.30547,-0.0899 c -8.41799,-0.0494 -16.35699,-0.18596 -17.64222,-0.30341 z"
           id="path4629"
           inkscape:connector-curvature="0" />
      </g>
      <g
         transform="translate(-6.1733141e-5,-2.8686728e-4)"
         inkscape:export-ydpi="90"
         inkscape:export-xdpi="90"
         id="g4783">
        <path
           style="fill:none;fill-rule:evenodd;stroke:#000000;stroke-width:4.24586391;stroke-linecap:round;stroke-linejoin:round;stroke-miterlimit:4;stroke-dasharray:none;stroke-opacity:1"
           d="m 240.17291,447.30664 17.30822,-28.86423"
           id="path4210"
           inkscape:connector-curvature="0" />
        <path
           style="fill:none;fill-rule:evenodd;stroke:#000000;stroke-width:4.41712046;stroke-linecap:round;stroke-linejoin:round;stroke-miterlimit:4;stroke-dasharray:none;stroke-opacity:1"
           d="m 240.58084,446.61239 -35.33697,0"
           id="path4210-3"
           inkscape:connector-curvature="0" />
        <path
           style="fill:none;fill-rule:evenodd;stroke:#000000;stroke-width:4.37668991;stroke-linecap:round;stroke-linejoin:round;stroke-miterlimit:4;stroke-dasharray:none;stroke-opacity:1"
           d="m 240.38428,386.99052 17.45946,30.40474"
           id="path4210-6"
           inkscape:connector-curvature="0" />
        <path
           style="fill:none;fill-rule:evenodd;stroke:#000000;stroke-width:4.43049622;stroke-linecap:round;stroke-linejoin:round;stroke-miterlimit:4;stroke-dasharray:none;stroke-opacity:1"
           d="m 188.28429,417.2145 18.23654,-29.82928"
           id="path4210-2"
           inkscape:connector-curvature="0" />
        <path
           style="fill:none;fill-rule:evenodd;stroke:#000000;stroke-width:4.20250034;stroke-linecap:round;stroke-linejoin:round;stroke-miterlimit:4;stroke-dasharray:none;stroke-opacity:1"
           d="m 188.50777,417.88359 17.08757,28.64279"
           id="path4210-3-9"
           inkscape:connector-curvature="0" />
        <path
           style="fill:none;fill-rule:evenodd;stroke:#000000;stroke-width:4.54184818;stroke-linecap:round;stroke-linejoin:round;stroke-miterlimit:4;stroke-dasharray:none;stroke-opacity:1"
           d="m 240.24151,386.97217 -33.37356,0"
           id="path4210-6-1"
           inkscape:connector-curvature="0" />
        <path
           style="fill:none;fill-rule:evenodd;stroke:#000000;stroke-width:4.19391489;stroke-linecap:round;stroke-linejoin:round;stroke-miterlimit:4;stroke-dasharray:none;stroke-opacity:1"
           d="m 188.50058,475.48071 17.05211,-28.58523"
           id="path4210-3-2"
           inkscape:connector-curvature="0" />
        <path
           style="fill:none;fill-rule:evenodd;stroke:#000000;stroke-width:4.07982206;stroke-linecap:round;stroke-linejoin:round;stroke-miterlimit:4;stroke-dasharray:none;stroke-opacity:1"
           d="m 239.72199,446.64155 15.76425,29.26107"
           id="path4210-3-7"
           inkscape:connector-curvature="0" />
        <path
           style="fill:none;fill-rule:evenodd;stroke:#000000;stroke-width:4.39500618;stroke-linecap:round;stroke-linejoin:round;stroke-miterlimit:4;stroke-dasharray:none;stroke-opacity:1"
           d="m 190.7444,477.20864 63.99567,0.36395"
           id="path4331"
           inkscape:connector-curvature="0" />
        <path
           style="fill:none;fill-rule:evenodd;stroke:#000000;stroke-width:4.36528492;stroke-linecap:round;stroke-linejoin:round;stroke-miterlimit:4;stroke-dasharray:none;stroke-opacity:1"
           d="m 187.95171,477.65553 34.49948,70.98115 32.85661,-71.82282"
           id="path4348"
           inkscape:connector-curvature="0" />
        <path
           style="fill:none;fill-rule:evenodd;stroke:#000000;stroke-width:4.40284061;stroke-linecap:round;stroke-linejoin:round;stroke-miterlimit:4;stroke-dasharray:none;stroke-opacity:1"
           d="m 203.53202,509.97968 34.51275,0.29647"
           id="path4350"
           inkscape:connector-curvature="0" />
        <path
           style="fill:none;fill-rule:evenodd;stroke:#000000;stroke-width:4.37668991;stroke-linecap:round;stroke-linejoin:round;stroke-miterlimit:4;stroke-dasharray:none;stroke-opacity:1"
           d="m 189.62249,355.12018 17.45949,30.40473"
           id="path4210-6-9"
           inkscape:connector-curvature="0" />
        <path
           style="fill:none;fill-rule:evenodd;stroke:#000000;stroke-width:4.37667942;stroke-linecap:round;stroke-linejoin:round;stroke-miterlimit:4;stroke-dasharray:none;stroke-opacity:1"
           d="m 241.15468,385.76435 17.60152,-30.3227"
           id="path4210-6-9-3"
           inkscape:connector-curvature="0" />
        <path
           style="fill:none;fill-rule:evenodd;stroke:#000000;stroke-width:4.51631021;stroke-linecap:butt;stroke-linejoin:miter;stroke-miterlimit:4;stroke-dasharray:none;stroke-opacity:1"
           d="m 190.79954,416.59808 c -32.55669,-10.27923 -41.43579,4.16726 -41.43579,4.16726 -5.56069,9.53236 -5.35641,12.10147 -5.84645,27.01416 -0.27056,8.23386 2.96931,18.7211 12.06182,26.88234 14.54339,6.99415 23.41683,5.43327 32.26073,2.77817 l 0.29596,-1.38908"
           id="path4435"
           inkscape:connector-curvature="0"
           sodipodi:nodetypes="ccsccc" />
        <path
           style="fill:none;fill-rule:evenodd;stroke:#000000;stroke-width:4.51631021;stroke-linecap:butt;stroke-linejoin:miter;stroke-miterlimit:4;stroke-dasharray:none;stroke-opacity:1"
           d="m 258.61073,417.21615 c 32.5567,-10.27923 36.66812,4.72816 36.66812,4.72816 5.56068,9.53237 5.3564,12.10147 5.84646,27.01416 0.27055,8.23387 -2.96934,18.7211 -12.06183,26.88234 -14.54341,6.99416 -23.41683,5.43327 -32.2607,2.77817 l -0.296,-1.38908"
           id="path4435-6"
           inkscape:connector-curvature="0"
           sodipodi:nodetypes="ccsccc" />
        <circle
           style="stroke-width:45;stroke-linecap:round;stroke-linejoin:round;stroke-miterlimit:4;stroke-dasharray:none"
           id="path4418"
           cx="212.27824"
           cy="411.26907"
           r="3.5056512" />
        <circle
           style="stroke-width:45;stroke-linecap:round;stroke-linejoin:round;stroke-miterlimit:4;stroke-dasharray:none"
           id="path4418-6"
           cx="232.33058"
           cy="411.26907"
           r="3.5056512" />
      </g>
      <g
         inkscape:export-ydpi="90"
         inkscape:export-xdpi="90"
         transform="translate(8.2028658e-5,-3.6926382e-4)"
         id="g4779">
        <path
           style="fill:#ffffff;stroke:none;stroke-width:45;stroke-linecap:round;stroke-linejoin:round;stroke-miterlimit:4;stroke-dasharray:none;stroke-opacity:1"
           d="m 266.83558,478.43764 c -0.0409,-0.0383 -0.52994,-0.12173 -1.08688,-0.18546 -0.55694,-0.0637 -1.20384,-0.1543 -1.43758,-0.20125 -0.23374,-0.0469 -0.62713,-0.12412 -0.87423,-0.1715 -0.24707,-0.0474 -0.61096,-0.12485 -0.80863,-0.17217 -0.19764,-0.0473 -1.16801,-0.27538 -2.15636,-0.50682 -2.32713,-0.54495 -2.83122,-0.79537 -2.97403,-1.47737 -0.0621,-0.2965 -0.37921,-1.0647 -0.70466,-1.70712 -0.72728,-1.43548 -9.20577,-17.27732 -9.71348,-18.14936 -0.20138,-0.34592 -0.61106,-1.15282 -0.9104,-1.79311 -0.29931,-0.64029 -0.60543,-1.20633 -0.68027,-1.25787 -0.0748,-0.0515 -0.39757,-0.65758 -0.71719,-1.34674 -0.31962,-0.68917 -0.63759,-1.29564 -0.70659,-1.34773 -0.069,-0.0521 -0.36271,-0.60009 -0.65267,-1.2178 -0.28996,-0.61771 -0.60249,-1.1231 -0.69455,-1.1231 -0.092,0 -0.0349,-0.20216 0.12705,-0.44925 0.1619,-0.24708 0.24629,-0.44924 0.18755,-0.44924 -0.0588,0 0.0202,-0.12707 0.17553,-0.28238 0.15532,-0.15531 0.2824,-0.3979 0.2824,-0.53909 0,-0.14119 0.0754,-0.25671 0.16757,-0.25671 0.0922,0 0.22413,-0.17817 0.29327,-0.39594 0.0691,-0.21776 0.23627,-0.50656 0.37148,-0.64177 0.13521,-0.13521 0.24586,-0.36135 0.24586,-0.50255 0,-0.14118 0.0729,-0.2567 0.1621,-0.2567 0.0891,0 0.25112,-0.22238 0.35991,-0.49417 0.10882,-0.27179 0.35812,-0.73676 0.554,-1.03326 0.19592,-0.2965 0.43948,-0.70081 0.54125,-0.89848 0.10177,-0.19766 0.34436,-0.60198 0.53909,-0.89848 0.19473,-0.2965 0.43732,-0.70082 0.53909,-0.89848 0.10177,-0.19767 0.34435,-0.60199 0.53909,-0.89849 0.19473,-0.2965 0.43731,-0.70082 0.53909,-0.89848 0.10177,-0.19767 0.34435,-0.60199 0.53908,-0.89849 0.19474,-0.29649 0.43732,-0.70081 0.53909,-0.89848 0.10177,-0.19767 0.34101,-0.60198 0.5317,-0.89848 0.19065,-0.2965 0.45699,-0.74125 0.5919,-0.98834 0.19844,-0.36351 8.72897,-14.68488 8.86438,-14.88189 0.0617,-0.0898 4.89472,-1.46017 5.52653,-1.56699 0.3126,-0.0529 0.70339,-0.13703 0.86846,-0.18706 0.16508,-0.05 0.4683,-0.12798 0.67386,-0.17325 0.20557,-0.0453 0.55569,-0.12356 0.77806,-0.17399 0.22237,-0.0504 0.60648,-0.13047 0.85358,-0.17785 0.24707,-0.0474 0.65139,-0.12824 0.89846,-0.17969 3.24917,-0.67664 5.63164,-0.90149 9.34425,-0.88187 3.85798,0.0204 5.42486,0.23657 7.9965,1.10337 0.49414,0.16656 0.93891,0.30981 0.98832,0.31833 0.0494,0.009 0.45375,0.21013 0.89849,0.44802 0.44474,0.23789 0.86927,0.41618 0.9434,0.3962 0.0741,-0.02 0.13477,0.0445 0.13477,0.14337 0,0.0988 0.0867,0.1797 0.19254,0.1797 0.21151,0 0.23931,0.0233 1.68202,1.41299 0.55033,0.53006 1.0006,1.03546 1.0006,1.1231 0,0.0876 0.0606,0.15999 0.13477,0.16076 0.0741,6.7e-4 0.22298,0.18271 0.33079,0.40431 0.10781,0.22161 0.88554,1.7776 1.72828,3.45776 0.84275,1.68017 1.58882,3.23679 1.65796,3.45916 0.0692,0.22238 0.20591,0.40432 0.30393,0.40432 0.098,0 0.14021,0.0614 0.0938,0.13655 -0.0464,0.0751 0.0427,0.41878 0.19804,0.76372 0.15536,0.34493 0.29091,0.66758 0.30116,0.717 0.0105,0.0494 0.0829,0.19093 0.16133,0.31447 0.0785,0.12354 0.0994,0.22462 0.0466,0.22462 -0.0528,0 -0.0101,0.22238 0.0952,0.49417 0.18299,0.4729 0.22125,0.60839 0.43148,1.52742 0.24315,1.06297 0.55947,3.75194 0.70284,5.97491 0.44484,6.89654 0.45716,13.79419 0.027,15.01566 -0.0501,0.14221 -0.1289,0.58202 -0.1751,0.97735 -0.0462,0.39533 -0.25942,1.36569 -0.47386,2.15636 -0.21441,0.79066 -0.41576,1.55887 -0.44744,1.70712 -0.0317,0.14825 -0.074,0.28976 -0.0939,0.31447 -0.0199,0.0247 -0.0564,0.12578 -0.0811,0.22462 -0.0246,0.0988 -0.0652,0.22012 -0.0899,0.26954 -0.0246,0.0494 -0.062,0.1505 -0.0829,0.22462 -0.0393,0.13953 -0.20645,0.59065 -0.44937,1.21295 -0.31978,0.81924 -2.09035,4.32141 -2.29794,4.54534 -0.12353,0.13327 -0.22463,0.35782 -0.22463,0.49901 0,0.14119 -0.0808,0.2567 -0.17968,0.2567 -0.0988,0 -0.17972,0.1213 -0.17972,0.26955 0,0.14825 -0.0808,0.26955 -0.17969,0.26955 -0.0988,0 -0.17968,0.12129 -0.17968,0.26954 0,0.14825 -0.0809,0.26955 -0.17972,0.26955 -0.0988,0 -0.17969,0.0843 -0.17969,0.18728 0,0.103 -0.0824,0.28494 -0.18302,0.40431 -0.37712,0.44719 -0.81656,1.01217 -1.1647,1.49745 -0.19767,0.27553 -0.52113,0.66612 -0.71877,0.86799 -0.19767,0.20187 -0.71847,0.77142 -1.15734,1.26568 -0.43887,0.49425 -0.93294,0.97951 -1.09795,1.07834 -0.70561,0.42266 -1.88249,1.2685 -1.93766,1.39265 -0.0331,0.0741 -0.13919,0.13477 -0.23614,0.13477 -0.0969,0 -0.59557,0.1915 -1.1081,0.42556 -1.22817,0.56085 -4.25292,1.68977 -4.80692,1.79406 -0.99503,0.18732 -2.24746,0.53761 -2.43089,0.6799 -0.10794,0.0837 -0.23458,0.11386 -0.28145,0.067 -0.0469,-0.0469 -0.36288,-0.002 -0.70228,0.10032 -0.33936,0.10204 -0.98089,0.22388 -1.42567,0.27075 -0.44474,0.0469 -0.97036,0.13651 -1.168,0.19919 -0.19767,0.0627 -0.60198,0.13844 -0.89849,0.16834 -0.97877,0.0987 -6.67837,0.24848 -6.75419,0.17749 z"
           id="path4662"
           inkscape:connector-curvature="0" />
        <path
           style="fill:#ffffff;stroke:none;stroke-width:45;stroke-linecap:round;stroke-linejoin:round;stroke-miterlimit:4;stroke-dasharray:none;stroke-opacity:1"
           d="m 170.80327,477.12899 c -3.56624,-0.44756 -9.80928,-2.37926 -13.13328,-4.06366 -1.14768,-0.58158 -4.02386,-3.56357 -5.68314,-5.89224 -2.42516,-3.40353 -4.21763,-7.23133 -5.19355,-11.0908 -0.8299,-3.282 -0.93595,-4.7238 -0.81553,-11.08735 0.21155,-11.17988 0.73585,-14.07315 3.56943,-19.69744 1.21375,-2.40915 1.68281,-3.14799 2.64831,-4.17147 5.48428,-5.81362 16.75245,-7.41769 30.46774,-4.33721 3.447,0.77421 3.1716,0.62183 4.13354,2.28696 0.47038,0.81422 4.18856,7.10042 8.26261,13.96933 8.41414,14.18635 7.81973,13.14675 7.81973,13.67624 0,0.22128 -0.86445,1.86408 -1.92099,3.65067 -1.05654,1.7866 -4.58441,7.73628 -7.8397,13.22152 -3.25529,5.48524 -6.12833,10.39957 -6.38453,10.92072 -0.44907,0.91349 -0.50798,0.95996 -1.6393,1.29267 -3.63079,1.06782 -6.42462,1.44325 -10.51771,1.41334 -1.77899,-0.013 -3.47713,-0.0541 -3.77363,-0.0913 z"
           id="path4676"
           inkscape:connector-curvature="0" />
      </g>
    </g>
    <g
       id="g4299"
       inkscape:export-xdpi="90"
       inkscape:export-ydpi="90"
       transform="translate(-32.378181,-84.034546)">
      <path
         transform="translate(121.44053,351.31774)"
         inkscape:connector-curvature="0"
         id="path4297"
         d="m 86.682079,22.886426 0.01084,-10.875 2.438424,4.25 c 3.329493,5.803072 3.650582,6.191432 4.81175,5.819863 0.586174,-0.187574 2.38073,-2.814335 4.478156,-6.55485 1.924991,-3.433015 3.612501,-6.246826 3.750001,-6.2529146 0.1375,-0.00609 1.79388,2.6820046 3.68085,5.9735396 1.88696,3.291536 3.74035,6.241477 4.11863,6.555424 1.15708,0.960297 2.04048,0.177108 4.38484,-3.887479 1.23833,-2.146971 2.47771,-4.241083 2.75418,-4.653583 0.34509,-0.514876 0.5119,2.58093 0.53209,9.875 l 0.0294,10.625 -15.5,0 -15.499991,0 0.01084,-10.875 z"
         style="fill:#ff0066;stroke:#ff0066;stroke-width:4.30000019;stroke-linecap:butt;stroke-linejoin:miter;stroke-miterlimit:4;stroke-dasharray:none;stroke-opacity:1" />
      <path
         inkscape:connector-curvature="0"
         id="path4203"
         d="m 206.39037,386.81774 0,-30.08792 8.63754,15.04396 8.63754,-15.04396 8.63754,15.04396 8.63754,-15.04396 0,30.08792 z"
         style="fill:none;fill-rule:evenodd;stroke:#000000;stroke-width:3;stroke-linecap:round;stroke-linejoin:round;stroke-miterlimit:4;stroke-dasharray:none;stroke-opacity:1" />
    </g>
    <g
       id="g4444"
       transform="translate(1.9800023,-239.09454)"
       inkscape:export-xdpi="90"
       inkscape:export-ydpi="90">
      <g
         id="g4462"
         transform="translate(-135,14)">
        <path
           sodipodi:nodetypes="cccc"
           inkscape:connector-curvature="0"
           id="path4319"
           d="m 360.69147,467.51878 c 0,0 1.89661,-9.88704 10.68572,-21.3977 11.20857,-6.21589 19.36229,-3.46961 26.4599,-3.89049 13.36461,5.70133 14.29798,9.50214 20.35376,26.58502"
           style="fill:none;fill-rule:evenodd;stroke:#502d16;stroke-width:4.59524822;stroke-linecap:butt;stroke-linejoin:miter;stroke-miterlimit:4;stroke-dasharray:none;stroke-opacity:1"
           transform="translate(-0.5,-4.4999976)" />
        <rect
           y="466.99274"
           x="360.44052"
           height="35"
           width="58"
           id="rect4303"
           style="fill:#a05a2c;fill-opacity:1;stroke:#502d16;stroke-width:4.30000019;stroke-linecap:round;stroke-linejoin:round;stroke-miterlimit:4;stroke-dasharray:none;stroke-opacity:1"
           transform="translate(-0.5,-4.4999976)" />
        <g
           transform="translate(-0.50000876,-3.3250005)"
           id="g4429">
          <path
             inkscape:connector-curvature="0"
             id="path4328"
             d="m 369.44053,466.81775 0,33"
             style="fill:#c87137;fill-rule:evenodd;stroke:#c87137;stroke-width:1px;stroke-linecap:butt;stroke-linejoin:miter;stroke-opacity:1" />
          <path
             inkscape:connector-curvature="0"
             id="path4328-7"
             d="m 377.94053,466.81775 0,33"
             style="fill:#c87137;fill-rule:evenodd;stroke:#c87137;stroke-width:1px;stroke-linecap:butt;stroke-linejoin:miter;stroke-opacity:1" />
          <path
             inkscape:connector-curvature="0"
             id="path4328-5"
             d="m 383.94053,466.81775 0,33"
             style="fill:#c87137;fill-rule:evenodd;stroke:#c87137;stroke-width:1px;stroke-linecap:butt;stroke-linejoin:miter;stroke-opacity:1" />
          <path
             inkscape:connector-curvature="0"
             id="path4328-3"
             d="m 391.44053,466.81775 0,33"
             style="fill:#c87137;fill-rule:evenodd;stroke:#c87137;stroke-width:1px;stroke-linecap:butt;stroke-linejoin:miter;stroke-opacity:1" />
          <path
             inkscape:connector-curvature="0"
             id="path4328-56"
             d="m 398.44053,466.81775 0,33"
             style="fill:#c87137;fill-rule:evenodd;stroke:#c87137;stroke-width:1px;stroke-linecap:butt;stroke-linejoin:miter;stroke-opacity:1" />
          <path
             inkscape:connector-curvature="0"
             id="path4328-2"
             d="m 405.94053,466.81775 0,33"
             style="fill:#c87137;fill-rule:evenodd;stroke:#c87137;stroke-width:1px;stroke-linecap:butt;stroke-linejoin:miter;stroke-opacity:1" />
          <path
             inkscape:connector-curvature="0"
             id="path4328-9"
             d="m 412.94053,466.81775 0,33"
             style="fill:#c87137;fill-rule:evenodd;stroke:#c87137;stroke-width:1px;stroke-linecap:butt;stroke-linejoin:miter;stroke-opacity:1" />
          <path
             inkscape:connector-curvature="0"
             id="path4328-9-1"
             d="m 417.44053,472.31774 -56,0"
             style="fill:#c87137;fill-rule:evenodd;stroke:#c87137;stroke-width:1.30267787px;stroke-linecap:butt;stroke-linejoin:miter;stroke-opacity:1" />
          <path
             inkscape:connector-curvature="0"
             id="path4328-9-1-2"
             d="m 417.44053,477.81774 -56,0"
             style="fill:#c87137;fill-rule:evenodd;stroke:#c87137;stroke-width:1.30267787px;stroke-linecap:butt;stroke-linejoin:miter;stroke-opacity:1" />
          <path
             inkscape:connector-curvature="0"
             id="path4328-9-1-7"
             d="m 417.44053,482.31774 -56,0"
             style="fill:#c87137;fill-rule:evenodd;stroke:#c87137;stroke-width:1.30267787px;stroke-linecap:butt;stroke-linejoin:miter;stroke-opacity:1" />
          <path
             inkscape:connector-curvature="0"
             id="path4328-9-1-0"
             d="m 417.44053,487.31774 -56,0"
             style="fill:#c87137;fill-rule:evenodd;stroke:#c87137;stroke-width:1.30267787px;stroke-linecap:butt;stroke-linejoin:miter;stroke-opacity:1" />
          <path
             inkscape:connector-curvature="0"
             id="path4328-9-1-9"
             d="m 417.44053,491.81774 -56,0"
             style="fill:#c87137;fill-rule:evenodd;stroke:#c87137;stroke-width:1.30267787px;stroke-linecap:butt;stroke-linejoin:miter;stroke-opacity:1" />
          <path
             inkscape:connector-curvature="0"
             id="path4328-9-1-3"
             d="m 417.44053,495.81774 -56,0"
             style="fill:#c87137;fill-rule:evenodd;stroke:#c87137;stroke-width:1.30267787px;stroke-linecap:butt;stroke-linejoin:miter;stroke-opacity:1" />
        </g>
      </g>
    </g>
    <path
       style="fill:#ff6600;fill-opacity:1;stroke:#ff6600;stroke-width:0.80934715;stroke-linecap:round;stroke-linejoin:miter;stroke-miterlimit:4;stroke-dasharray:none;stroke-opacity:1"
       d="m 237.68357,311.74017 c -0.51183,-0.10187 -0.60243,-0.35893 -0.78018,-2.21314 -0.37818,-3.94482 -0.24751,-11.21246 0.23489,-13.06588 1.19843,-4.60435 4.39368,-8.9051 7.92871,-10.6719 2.80066,-1.39976 5.0296,-1.74797 10.27317,-1.60488 5.33461,0.14557 6.52378,0.45135 8.71436,2.2408 2.46919,2.01702 4.31288,5.45469 5.0477,9.41171 0.34575,1.86192 0.45023,15.26307 0.12318,15.80396 -0.16916,0.2798 -30.16177,0.37424 -31.54183,0.0993 z"
       id="path4646"
       inkscape:connector-curvature="0" />
    <path
       style="fill:none;fill-rule:evenodd;stroke:#000000;stroke-width:3;stroke-linecap:butt;stroke-linejoin:miter;stroke-miterlimit:4;stroke-dasharray:none;stroke-opacity:1"
       d="m 236.60689,312.1241 c 0,0 -1.57474,-12.49841 0.25,-17.25 1.82474,-4.75159 4.06199,-7.91298 8.75,-10 4.68801,-2.08702 14.8404,-1.73412 17.5,0.25 2.6596,1.98412 4.28617,3.36831 6,8.25 1.71383,4.88169 0.5,19.75 0.5,19.75 z"
       id="path4480"
       inkscape:connector-curvature="0"
       sodipodi:nodetypes="czzzzcc" />
    <path
       style="fill:none;fill-rule:evenodd;stroke:#000000;stroke-width:2;stroke-linecap:butt;stroke-linejoin:miter;stroke-miterlimit:4;stroke-dasharray:none;stroke-opacity:1"
       d="m 252.85689,282.1241 0.75,29.5"
       id="path4648"
       inkscape:connector-curvature="0" />
    <g
       id="g4522"
       transform="matrix(0.19843189,0,0,0.19843189,-116.37091,183.72885)"
       inkscape:export-xdpi="90"
       inkscape:export-ydpi="90">
      <ellipse
         transform="matrix(-0.97025788,0.24207365,-0.24207365,-0.97025788,0,0)"
         ry="110"
         rx="37.142857"
         cy="-1370.9156"
         cx="39.165573"
         id="path4138-6-6"
         style="fill:#ff6600;stroke:none" />
      <ellipse
         transform="matrix(-0.61437081,0.78901743,-0.78901743,-0.61437081,0,0)"
         ry="110"
         rx="37.142857"
         cy="-1093.2241"
         cx="796.40521"
         id="path4138-3-0"
         style="fill:#ff6600;stroke:none" />
      <ellipse
         inkscape:transform-center-y="-14.459528"
         inkscape:transform-center-x="-98.742628"
         transform="matrix(-0.27739576,-0.96075574,0.96075574,-0.27739576,0,0)"
         ry="110"
         rx="37.142857"
         cy="48.225662"
         cx="-1229.8796"
         id="path4138-1-7-0-9-6"
         style="fill:#ff9955;stroke:none" />
      <ellipse
         transform="matrix(-0.78031398,-0.62538796,0.62538796,-0.78031398,0,0)"
         ry="110"
         rx="37.142857"
         cy="-615.36353"
         cx="-981.10608"
         id="path4138-1-7-0-2"
         style="fill:#ff6600;stroke:none" />
      <ellipse
         transform="matrix(-0.88344535,0.46853422,-0.46853422,-0.88344535,0,0)"
         ry="110"
         rx="37.142857"
         cy="-1058.2382"
         cx="306.4808"
         id="path4138-1-6"
         style="fill:#d45500;stroke:none" />
      <ellipse
         transform="matrix(-0.6262704,0.77960591,-0.77960591,-0.6262704,0,0)"
         ry="110"
         rx="37.142857"
         cy="-836.61285"
         cx="781.01642"
         id="path4138-7-1"
         style="fill:#ff6600;stroke:none" />
      <ellipse
         transform="matrix(-0.9696064,-0.24467004,0.24467004,-0.9696064,0,0)"
         ry="110"
         rx="37.142857"
         cy="-960.5202"
         cx="-565.43536"
         id="path4138-1-7-8"
         style="fill:#ff6600;stroke:none" />
      <ellipse
         transform="matrix(-0.25982683,0.96565523,-0.96565523,-0.25982683,0,0)"
         ry="98.571426"
         rx="32.857143"
         cy="-448.98196"
         cx="1121.5461"
         id="path4138-5-7"
         style="fill:#ff7f2a;stroke:none" />
      <ellipse
         transform="matrix(-0.3580144,-0.93371606,0.8502054,-0.52645112,0,0)"
         ry="104.91526"
         rx="44.380924"
         cy="-308.01022"
         cx="-1206.3585"
         id="path4138-35-9"
         style="fill:#ff6600;stroke:none" />
      <ellipse
         transform="matrix(-0.93783385,-0.34708453,0.34708453,-0.93783385,0,0)"
         ry="110"
         rx="37.142857"
         cy="-1161.0918"
         cx="-669.10211"
         id="path4138-62-2"
         style="fill:#ff7f2a;stroke:none" />
      <ellipse
         transform="matrix(-0.25982683,0.96565523,-0.96565523,-0.25982683,0,0)"
         ry="110"
         rx="37.142857"
         cy="-713.26758"
         cx="1097.2604"
         id="path4138-0"
         style="fill:#ff7f2a;stroke:none" />
      <circle
         transform="matrix(-0.25982683,0.96565523,-0.96565523,-0.25982683,0,0)"
         r="54.285713"
         cy="-578.93781"
         cx="1089.1273"
         id="path3336-2"
         style="fill:#000080;fill-rule:evenodd;stroke:none;stroke-width:1px;stroke-linecap:butt;stroke-linejoin:miter;stroke-opacity:1" />
    </g>
    <g
       id="g4892"
       inkscape:export-xdpi="90"
       inkscape:export-ydpi="90"
       transform="matrix(0.52991025,0,0,0.53955992,120.75023,131.82481)">
      <path
         sodipodi:nodetypes="cczzzccsssc"
         inkscape:connector-curvature="0"
         id="path4762"
         d="m 376.44053,316.31774 0,-100 c 0,0 13.01141,11.08084 21.48,13.61455 8.46858,2.5337 17.48713,4.19704 27.06728,4.18908 9.58014,-0.008 22.03496,-1.55406 30.00908,-4.71272 7.97412,-3.15866 16.44364,-13.09091 16.44364,-13.09091 l 0,100 c 0,0 -5.05978,6.82611 -15.58057,11.18018 -8.96606,3.71063 -22.90166,5.05255 -30.1867,5.05255 -7.70303,0 -22.18193,-1.74756 -32.33162,-5.69335 -10.7127,-4.16467 -16.90111,-10.53938 -16.90111,-10.53938 z"
         style="fill:#ffcc00;fill-rule:evenodd;stroke:#d45500;stroke-width:3;stroke-linecap:round;stroke-linejoin:round;stroke-miterlimit:4;stroke-dasharray:none;stroke-opacity:1" />
      <path
         sodipodi:nodetypes="czzzcc"
         inkscape:connector-curvature="0"
         id="path4774"
         d="m 376.44053,246.31774 c 0,0 10.3476,9.93606 19.76364,12.61818 9.41603,2.68212 22.90545,3.42909 36.57091,2.90546 13.66545,-0.52364 20.23636,-2.38182 30.23636,-7.38182 l 8.42909,-8.14182 0,0"
         style="fill:#ffcc00;fill-rule:evenodd;stroke:#d45500;stroke-width:3;stroke-linecap:round;stroke-linejoin:round;stroke-miterlimit:4;stroke-dasharray:none;stroke-opacity:1" />
      <path
         sodipodi:nodetypes="czzzzcc"
         inkscape:connector-curvature="0"
         id="path4776"
         d="m 376.44053,216.31774 c 0,0 6.38545,-3.42909 17.14545,-6.85818 10.76,-3.42909 23.2322,-5.57521 31.80728,-5 8.57507,0.57521 18.88369,2.25531 24.71272,3.95273 5.82904,1.69741 11.36746,2.23117 15.52364,3.95272 4.15619,1.72155 5.81091,3.95273 5.81091,3.95273 l 0,0"
         style="fill:#ffcc00;fill-rule:evenodd;stroke:#d45500;stroke-width:3;stroke-linecap:butt;stroke-linejoin:miter;stroke-miterlimit:4;stroke-dasharray:none;stroke-opacity:1" />
      <path
         transform="translate(121.44053,351.31774)"
         inkscape:connector-curvature="0"
         id="path4876"
         d="m 296.68988,-119.15249 c -8.56885,-0.99535 -18.34454,-3.16204 -22.47792,-4.98203 -2.92343,-1.28722 -8.2144,-4.6134 -12.5529,-7.8914 l -3.35081,-2.53175 44.45627,0.0174 44.45627,0.0174 -3.40621,3.25531 c -6.8041,6.50269 -12.00333,8.91656 -23.40553,10.86662 -5.86118,1.00241 -19.60812,1.72596 -23.71917,1.24842 z"
         style="fill:#ffcc00;fill-opacity:1;stroke:#ffcc00;stroke-width:1.57090914;stroke-linecap:round;stroke-linejoin:round;stroke-miterlimit:4;stroke-dasharray:none;stroke-opacity:1" />
      <path
         inkscape:connector-curvature="0"
         id="path4880"
         d="m 407.46157,260.99232 c -12.02137,-1.62939 -17.3183,-3.77797 -25.62812,-10.39544 l -4.8034,-3.82516 -0.14406,-13.95408 c -0.0792,-7.67476 -0.0343,-13.95409 0.1,-13.95409 0.13423,0 2.25924,1.52196 4.72226,3.38213 2.463,1.86018 6.65957,4.53216 9.32569,5.93775 14.09385,7.43028 38.28914,9.22714 58.02629,4.30932 7.87855,-1.96305 12.53972,-4.60349 18.71508,-10.60162 l 3.24238,-3.14932 0,13.49448 0,13.49448 -4.17423,4.30983 c -3.23685,3.34199 -5.02092,4.6879 -7.94452,5.99337 -10.10294,4.51124 -14.20824,5.22787 -31.50874,5.50021 -10.02891,0.15788 -15.9549,-0.003 -19.92862,-0.54186 z"
         style="fill:#d45500;fill-opacity:1;stroke:none;stroke-width:1.57090914;stroke-linecap:round;stroke-linejoin:round;stroke-miterlimit:4;stroke-dasharray:none;stroke-opacity:1" />
      <path
         inkscape:connector-curvature="0"
         id="path4882"
         d="m 411.42821,233.49777 c -9.51229,-1.7736 -14.67266,-3.36762 -19.78036,-6.11005 -4.72884,-2.53901 -14.36108,-9.59025 -14.36108,-10.51298 0,-0.25057 1.15838,-0.93089 2.57416,-1.51182 29.06606,-11.92646 43.41142,-12.8978 74.21061,-5.02493 10.11218,2.58488 15.82668,4.78466 16.2937,6.27223 0.30551,0.97313 -9.02164,9.1673 -12.89414,11.32787 -6.88909,3.84362 -16.84415,5.85344 -31.3358,6.32638 -7.27505,0.23742 -10.11606,0.0893 -14.70709,-0.7667 z"
         style="fill:#552200;fill-opacity:1;stroke:none;stroke-width:3;stroke-linecap:round;stroke-linejoin:round;stroke-miterlimit:4;stroke-dasharray:none;stroke-opacity:1" />
      <flowRoot
         transform="matrix(1.4961995,0,0,1.4961995,6.5283278,246.61722)"
         style="font-style:normal;font-variant:normal;font-weight:normal;font-stretch:normal;font-size:40px;line-height:125%;font-family:Purisa;-inkscape-font-specification:Purisa;letter-spacing:0px;word-spacing:0px;fill:#552200;fill-opacity:1;stroke:none;stroke-width:1px;stroke-linecap:butt;stroke-linejoin:miter;stroke-opacity:1"
         id="flowRoot4884"
         xml:space="preserve"><flowRegion
           id="flowRegion4886"><rect
             style="font-style:normal;font-variant:normal;font-weight:normal;font-stretch:normal;font-family:Purisa;-inkscape-font-specification:Purisa;fill:#552200;fill-opacity:1"
             y="15"
             x="265"
             height="60"
             width="50"
             id="rect4888" /></flowRegion><flowPara
           id="flowPara4890">H</flowPara></flowRoot>    </g>
    <g
       id="g4937">
      <path
         sodipodi:nodetypes="czzzccc"
         inkscape:connector-curvature="0"
         id="path4480-6-2"
         d="m 104.62165,243.77198 c 0,0 2.10037,-8.21658 4.88096,-12.86102 2.78058,-4.64445 7.79552,-6.55148 15.33348,-7.17997 7.53796,-0.62849 9.44584,0.84746 14.30878,4.90983 4.86293,4.06237 3.66664,7.87645 7.81206,12.65851 6.47156,3.24676 5.78799,1.60593 11.45463,2.9501 z"
         style="fill:none;fill-rule:evenodd;stroke:#000000;stroke-width:3.66100001;stroke-linecap:round;stroke-linejoin:round;stroke-miterlimit:4;stroke-dasharray:none;stroke-opacity:1" />
      <path
         transform="translate(121.44053,351.31774)"
         inkscape:connector-curvature="0"
         id="path4932"
         d="m -13.752507,-110.60131 c 2.012768,-6.55622 4.3448845,-10.46948 7.2560476,-12.17553 4.2695393,-2.50212 13.6245343,-3.68084 17.2114594,-2.16863 0.92675,0.3907 2.92202,1.69213 4.433935,2.89205 2.279944,1.80946 3.183812,3.07299 5.29791,7.40599 l 2.548975,5.22431 -18.5550149,0 -18.5550151,0 0.361703,-1.17819 z"
         style="fill:#ff6600;fill-opacity:1;stroke:#ff6600;stroke-width:3;stroke-linecap:round;stroke-linejoin:round;stroke-miterlimit:4;stroke-dasharray:none;stroke-opacity:1" />
    </g>
  </g>
</svg>
